<?xml version="1.0" encoding="utf-8"?>
<!-- Generator: Adobe Illustrator 16.0.2, SVG Export Plug-In . SVG Version: 6.00 Build 0)  -->
<!DOCTYPE svg PUBLIC "-//W3C//DTD SVG 1.1//EN" "http://www.w3.org/Graphics/SVG/1.1/DTD/svg11.dtd">
<svg version="1.1" id="Layer_1" xmlns="http://www.w3.org/2000/svg" xmlns:xlink="http://www.w3.org/1999/xlink" x="0px" y="0px"
	 width="19px" height="19px" viewBox="15.5 15.5 19 19" enable-background="new 15.5 15.5 19 19" xml:space="preserve">
<linearGradient id="SVGID_1_" gradientUnits="userSpaceOnUse" x1="15.6655" y1="25" x2="34.334" y2="25">
	<stop  offset="0.1823" style="stop-color:#F4A536"/>
	<stop  offset="1" style="stop-color:#F37435"/>
</linearGradient>
<path fill="url(#SVGID_1_)" d="M25,15.666c-5.146,0-9.334,4.187-9.334,9.334c0,1.607,0.415,3.188,1.202,4.582l-1.188,4.236
	c-0.039,0.14-0.001,0.289,0.1,0.392c0.078,0.081,0.183,0.124,0.292,0.124c0.032,0,0.065-0.004,0.098-0.012l4.422-1.096
	c1.35,0.726,2.871,1.107,4.409,1.107c5.146,0,9.334-4.188,9.334-9.334C34.334,19.853,30.146,15.666,25,15.666z M29.695,28.294
	c-0.199,0.553-1.157,1.057-1.617,1.125c-0.414,0.06-0.937,0.086-1.511-0.095c-0.347-0.109-0.793-0.254-1.365-0.498
	c-2.404-1.025-3.974-3.415-4.093-3.573c-0.12-0.158-0.979-1.283-0.979-2.447s0.619-1.737,0.839-1.974
	c0.22-0.237,0.479-0.296,0.64-0.296c0.16,0,0.319,0.002,0.459,0.008c0.147,0.008,0.345-0.055,0.54,0.407
	c0.2,0.473,0.679,1.638,0.738,1.757c0.06,0.119,0.1,0.257,0.021,0.415c-0.08,0.158-0.12,0.256-0.24,0.395
	c-0.12,0.138-0.251,0.309-0.359,0.415c-0.12,0.118-0.245,0.246-0.105,0.483c0.14,0.237,0.621,1.011,1.333,1.64
	c0.915,0.806,1.687,1.057,1.926,1.174c0.239,0.118,0.379,0.099,0.52-0.06c0.139-0.158,0.6-0.691,0.759-0.928
	c0.159-0.235,0.319-0.197,0.539-0.117c0.22,0.078,1.397,0.65,1.637,0.77c0.24,0.117,0.399,0.177,0.46,0.275
	S29.896,27.741,29.695,28.294z"/>
</svg>
